<?xml version="1.0" encoding="utf-8"?>
<!-- Generator: Adobe Illustrator 17.0.0, SVG Export Plug-In . SVG Version: 6.00 Build 0)  -->
<svg version="1.2" baseProfile="tiny" id="Layer_1" xmlns="http://www.w3.org/2000/svg" xmlns:xlink="http://www.w3.org/1999/xlink"
	 x="0px" y="0px" width="511px" height="174.385px" viewBox="279 1005.5 511 174.385" xml:space="preserve">
<path d="M676.386,1171.43c-42.804,0-71.868-14.796-90.363-49.673c-10.04-20.081-14.796-46.503-14.796-59.186
	c0-34.349,42.275-46.502,94.591-46.502c67.111,0,89.834,13.211,89.834,54.957C755.651,1137.609,742.44,1171.43,676.386,1171.43z
	 M789.472,1022.938c0-4.228-1.057-4.756-4.756-5.284c-25.365-3.171-82.965-11.626-108.858-11.626
	c-69.226,0-107.273,19.024-141.622,19.024c-31.177,0-76.623-19.553-131.581-19.553c-40.69,0-105.16,8.983-115.728,8.983
	c-5.813,0.528-6.87,2.114-7.398,7.398c-0.528,4.756-0.528,16.382-0.528,23.779c0,2.643,0.528,5.284,3.699,5.813
	c7.398,2.643,11.097,7.398,12.683,15.325c1.585,12.154,9.512,52.315,15.853,68.697c13.739,32.763,53.372,43.86,80.851,43.86
	c75.038,0,97.233-41.747,114.671-86.664c5.813-16.91,12.154-32.763,27.479-32.763c20.609,0,21.138,16.91,27.479,32.763
	c22.723,60.771,47.56,87.192,112.557,87.192c49.674,0,77.681-15.854,89.307-62.355c3.699-15.325,6.869-31.178,9.512-47.031
	c1.586-8.455,5.813-17.438,13.739-17.438c1.586,0,3.171-1.057,3.171-4.228C790,1039.849,790,1031.394,789.472,1022.938z
	 M479.278,1128.098c-26.422,39.104-60.771,43.332-89.835,43.332c-64.998,0-77.152-50.201-77.152-86.135
	c0-63.942,27.479-70.283,90.363-70.283c42.275,0,96.176,13.211,96.176,47.56C498.831,1084.237,489.318,1111.716,479.278,1128.098z
	 M529,1035.317c0,0-8.75,4.5-13.25,9.75s-9.5-6-15.5-11s-29.5-12.75-32.25-15c-1.506-1.232,35.25,8.375,35.25,8.375
	S531.828,1032.716,529,1035.317z M564.479,1081.562c-5.64-19.421-3.653-24.885-3.387-31.382c0.267-6.498,3.979-3.884,4.789,3.965
	c0.788,7.633,0.396,10.971,2.417,21.288c2.022,10.317,4.19,19.501,6.311,27.84C576.729,1111.611,570.119,1100.981,564.479,1081.562z
	"/>
</svg>
