<?xml version="1.0" encoding="utf-8"?>
<!-- Generator: Adobe Illustrator 17.0.0, SVG Export Plug-In . SVG Version: 6.00 Build 0)  -->
<svg version="1.2" baseProfile="tiny" id="Layer_1" xmlns="http://www.w3.org/2000/svg" xmlns:xlink="http://www.w3.org/1999/xlink"
	 x="0px" y="0px" width="526.608px" height="585.121px" viewBox="0 0 526.608 585.121" xml:space="preserve">
<path d="M468.096,58.513H345.814C333.529,24.57,301.331,0,263.304,0s-70.212,24.57-82.497,58.513H58.512
	C26.327,58.513,0,84.854,0,117.024v409.584c0,32.17,26.327,58.513,58.512,58.513h409.584c32.17,0,58.513-26.343,58.513-58.513
	V117.024C526.608,84.854,500.266,58.513,468.096,58.513z M263.304,58.513c16.085,0,29.256,13.171,29.256,29.256
	c0,16.085-13.171,29.256-29.256,29.256s-29.256-13.171-29.256-29.256C234.048,71.684,247.219,58.513,263.304,58.513z
	 M165.218,476.401H98.72v-66.5l196.137-196.119l66.499,66.498L165.218,476.401z M411.77,229.849l-32.453,32.453l-66.499-66.5
	l32.453-32.452c6.909-6.91,18.097-6.91,25.007,0l41.492,41.492C418.68,211.752,418.68,222.939,411.77,229.849z"/>
</svg>
