<?xml version="1.0" encoding="utf-8"?>
<!-- Generator: Adobe Illustrator 17.0.0, SVG Export Plug-In . SVG Version: 6.00 Build 0)  -->
<svg version="1.2" baseProfile="tiny" id="圖層_1"
	 xmlns="http://www.w3.org/2000/svg" xmlns:xlink="http://www.w3.org/1999/xlink" x="0px" y="0px" width="24px" height="24px"
	 viewBox="0 0 24 24" xml:space="preserve">
<g>
	<path d="M8.406,5.041l2.542,2.542C10.764,6.257,9.732,5.222,8.406,5.041z"/>
	<path d="M16,11c1.66,0,2.99-1.34,2.99-3S17.66,5,16,5s-3,1.34-3,3S14.34,11,16,11z"/>
	<path d="M16.377,13.011L22.366,19H23v-2.5C23,14.289,18.797,13.124,16.377,13.011z"/>
	<path d="M2.941,2.263l-1.31,1.31l3.524,3.524C5.064,7.384,5,7.683,5,8c0,1.66,1.34,3,3,3c0.318,0,0.616-0.064,0.902-0.155
		l2.788,2.787C10.395,13.213,8.988,13,8,13c-2.33,0-7,1.17-7,3.5V19h14v-2.057l5.086,5.086l1.31-1.31L2.941,2.263z"/>
</g>
</svg>
