<?xml version="1.0" encoding="utf-8"?>
<!-- Generator: Adobe Illustrator 17.0.0, SVG Export Plug-In . SVG Version: 6.00 Build 0)  -->
<svg version="1.2" baseProfile="tiny" id="Layer_1" xmlns="http://www.w3.org/2000/svg" xmlns:xlink="http://www.w3.org/1999/xlink"
	 x="0px" y="0px" width="24px" height="24px" viewBox="0 0 24 24" xml:space="preserve">
<path fill="#FFFFFF" d="M21.999,5.565h-3.397C18.262,4.657,17.368,4,16.311,4c-1.057,0-1.948,0.657-2.291,1.565h-3.396
	C9.732,5.565,9,6.269,9,7.13v10.957c0,0.86,0.732,1.565,1.624,1.565h11.375c0.894,0,1.626-0.705,1.626-1.565V7.13
	C23.625,6.269,22.893,5.565,21.999,5.565z M16.311,5.565c0.448,0,0.814,0.352,0.814,0.782c0,0.43-0.365,0.782-0.814,0.782
	c-0.446,0-0.811-0.352-0.811-0.782C15.5,5.917,15.865,5.565,16.311,5.565z M17.935,16.522H12.25v-1.565h5.685V16.522z
	 M20.375,13.393H12.25v-1.566h8.125V13.393z M20.375,10.261H12.25V8.696h8.125V10.261z"/>
<path fill="#FFFFFF" d="M8,11H5V8H3v3H0v2h3v3h2v-3h3V11z"/>
</svg>
